<svg xmlns="http://www.w3.org/2000/svg" width="389" viewBox="0 0 291.75 183.750001" height="245" version="1"><defs><clipPath id="946c7ba366"><path d="M.074 111H29v51H.074zm0 0"/></clipPath></defs><g clip-path="url(#946c7ba366)"><path fill="#002663" d="M.938 161.69V111h9.308v42.852h18.172v7.84H.926zm0 0"/></g><path fill="#002663" d="M38.434 119.688c-3.168 0-5.7-2.47-5.7-5.606 0-3.133 2.532-5.55 5.7-5.55s5.757 2.468 5.757 5.55c0 3.086-2.53 5.606-5.756 5.606zm-4.64 42.003v-36.37h9.25v36.37zm0 0M72.684 115.625c-1.473-.613-3.086-.996-4.63-.996-2.925 0-4.316 1.74-4.316 4.905v5.785h9.62l-2.378 7.067h-7.242v29.304H54.5v-29.303h-5.316v-7.067H54.5v-5.09c0-10.773 7.785-13.01 12.867-13.01 1.918 0 4.774.464 7.153 1.624l-1.836 6.793zm0 0M97.242 139.38h-14.18c0-3.982 2.704-7.993 7.16-7.993 4.7 0 6.86 4.093 7.008 7.992zm9.54 6.53v-2.672c0-11.308-6.473-18.765-16.33-18.765-10.397 0-16.557 8.61-16.557 18.996 0 9.764 5.386 19 18.1 19 4.31 0 9.16-1.16 13.235-4.013l-2.238-5.918c-3.148 1.702-5.992 2.55-9.472 2.55-5.618 0-10.086-3.778-10.235-9.18zm0 0M137.102 142.926c0 6.762-4.54 12.004-10.692 12.004-1.855 0-3.168-.23-4.54-.696v-20.85c1.302-.544 2.845-1.16 5.146-1.16 6.312 0 10.086 4.987 10.086 10.694zm9.246-.766c0-11.85-8.403-17.687-17.407-17.687-2.682 0-4.92.465-7.08 1.078v-18.33h-9.247v52.628c3.016 1.69 7.09 2.62 12.012 2.62 11.777 0 21.715-7.53 21.715-20.308zm0 0M178.29 143.47c0 6.835-2.915 11.823-8.696 11.823-5.778 0-8.926-4.758-8.926-11.824 0-7.064 2.848-11.7 8.695-11.7 5.852 0 8.926 4.675 8.926 11.7zm9.46-.08c0-5.554-1.625-10.308-4.832-13.706-3.168-3.317-7.785-5.21-13.402-5.21-5.317 0-9.703 1.893-12.942 5.14-3.38 3.476-5.304 8.386-5.304 14.09 0 5.702 1.996 10.85 5.61 14.21 3.163 2.93 7.472 4.555 12.554 4.555 5.464 0 9.933-1.927 13.17-5.25 3.37-3.368 5.146-8.306 5.146-13.83zm0 0M214.145 152.852c-1.23 1.078-3.29 2.32-6.528 2.32-3.863 0-5.918-2.086-5.918-5.09s2.206-4.758 7.218-4.906l5.215-.153v7.84zm10.082 8.84c-.543-1.692-.696-4.403-.696-9.614v-14.402c0-9.535-5.452-13.21-14.452-13.21-4.86 0-9.387.764-14.25 3.98l3.016 5.784c2.32-1.39 5.375-2.703 9.39-2.703 4.016 0 6.918 1.774 6.918 6.137v.93l-6.453.23c-9.31.313-15.23 4.395-15.23 11.934 0 7.144 5.214 11.7 11.9 11.7 4.872 0 8.18-1.856 10.548-4.013l1.543 3.246zm0 0M243.855 162.47c-6.457 0-9.007-3.63-9.007-8.54v-21.696h-6.453v-6.914h6.453v-8.414l9.238-2.742v11.156h11.328l-2.703 6.914H244.1v18.3c0 2.853 1.078 4.173 3.48 4.173 2.4 0 4.68-1.078 6.07-2.004l2.47 5.836c-3.782 2.698-8.692 3.937-12.243 3.937zm0 0M271.43 162.47c-6.012 0-10.46-1.544-13.477-3.4l3.016-6.76c2.67 1.854 6.143 3.206 9.772 3.206 3.633 0 6.223-1.364 6.223-3.832 0-6.532-16.774-4.09-16.774-16.446 0-6.332 4.994-10.773 13.76-10.773 4.558 0 7.777.695 10.628 1.824v7.718c-3.074-1.23-6.37-2.39-10.316-2.39-3.137 0-5.145 1-5.145 3.167 0 5.754 17.078 3.828 17.078 16.375 0 8.153-6.922 11.317-14.777 11.317zm0 0M257.328 27.734c6.164 10.27 5.47 14.04 10.15 24.4 1.784 3.96 5.674 6.62 7.6 12.737 2.15 6.845 1.926 15.142 14.688 30.35-9.46 3.495-8.555.885-17.832.913-7.16.03-11.075 2.53-16.13 2.53-3.94 0-7.702-1.632-11.515-1.44-5.95.312-9.38 4.304-15.493 4.504-6.594.214-7.957-1.684-12.7-1.692-6.363 0-9.43 4.192-21.175 4.664-5.96.24-9.945-3.145-17.41-3.505-1.907-.093-4.61-.05-7.078 1.32-2.15-3.316-3.602-8.788-3.602-12.882 0-3.598.785-9.18-.012-14.2-.925-5.734-4.847-9.644-6.816-18.58-2.64-11.966 3.55-14.583-6.957-35.79 5.172-1.22 10.96-1.227 12.707-1.227 8.55 0 11.164 3.98 17.488 3.98 4.86 0 6.555-2.6 13.344-2.6 6 0 8.45 5.956 17.1 5.956 4.34 0 8.716-2.39 12.056-2.39 2.328 0 4.95 1.663 8.965 1.663 4.016 0 7.543-1.722 11.547-1.722 4.578 0 7.242 3.156 9.894 3.156.485 0 .817-.052 1.192-.153zm0 0"/><path fill="#fff" d="M156.906 23.938c1.778-.383 6.598-.645 8.606-.645 7.51 0 12.19 3.05 17.035 3.05 4.023 0 7.238-3.222 11.91-3.222 1.805 0 2.844.505 3.61.958 2.257 7.356 5.566 22.13 5.566 22.13-.625-.1-1.692.022-2.29.022-4.75 0-12.503 4.352-18.335 4.352-5.012 0-10.93-2.367-16.52-2.367-2.468 0-4.113.555-4.617.703.302-14.11-3.5-21.625-4.983-24.98M265.176 50.813c-.363.183-1.262.222-1.606.222-4.63 0-4.386-2.62-9.85-2.62-4.146 0-8.997 1.987-12.822 1.987-2.027 0-3.87-.26-7.046-1.027-2.07-5.797-3.24-13.547-6.61-22.266 1.14.203 3.15.96 5.328.96 6.25 0 8.743-1.996 12.535-1.996 4.96 0 6.72 3.145 10.31 3.145 0 0 .745-.013 1.097-.083 2.906 5.07 4.43 9.453 6.554 15.66.707 2.066 1.344 4.012 2.122 6.04zm0 0M284.578 92.355c-5.625-7.496-8.875-14.128-11.144-24.156-.543.17-1.946.804-3.7.675-4.87-.355-5.152-1.797-9.136-1.965-4.61-.203-8.657 1.73-13.032 2.024-2.5.17-5.265-.14-7.543-.422 2.52 10.258 3.954 16.082 8.016 26.453 9.905.898 15.48-2.54 21.128-2.54s5.234.868 9.512.868c1.836 0 3.922-.293 5.89-.938zm0 0M208.738 67.535c1.3 7.004 4.77 22.008 6.848 28.985-.356-.032-.414-.094-1.434-.094-8.593 0-14.28 4.707-23.63 4.707-4.99 0-8.088-1.934-13.233-1.934-1.685 0-3.802.17-5.556.765-1.683-2.48-3.097-7.762-3.097-10.785 0-6.65.625-9.008-.06-14.692-.042-.355-.14-1.613-.526-3.113.76-.184 2.098-.426 3.18-.426 4.75 0 9.266 1.038 14.856 1.12 9.5.13 13.473-4.93 22.652-4.547zm0 0"/><path fill="#dd2330" d="M259.324 70.457s3.57 13.082 6.992 18.25c0 0-3.683.445-5.304.977-.102.03-3.282-4.766-6.617-18.3 0 0 2.492-.704 4.93-.92zm0 0M191.582 91.953c-1.14-4.898-1.008-11.086-2.582-16.258-1.28.102-3.945.14-5.516-.027 2.227 7.98 1.36 15.43 3.49 20.95.948.19 3.487.355 5.1.234.746-.063 5.156-.262 9.774-2.278-.352-1.582-.633-2.804-.805-4.508-1.492.567-6.508 1.887-9.46 1.887zm0 0M249.078 29.984c-.734-.738-3.047-1.007-4.578-.714 0 0 2.53 4.765 3.512 7.578 0 0-4.883-5.09-7.88-6.723 0 0-1.562.563-3.507.836 0 0 1.55 2.58 4.93 15.864 0 0 1.797-.043 4.578-.687 0 0-1.543-5.805-2.246-7.87 0 0 2.508 1.44 7.218 7.124 0 0 2.29-.23 4.33.063 0 0-2.302-8.457-6.365-15.47zm0 0"/><path fill="#dd2330" d="M244.32 94.816c-5.718 0-10.824 4.614-15.855 4.614-2.957 0-6.094-1.43-8.836-2.098-2.704-9.078-6.497-26.2-7.595-32.348-2.097-.644-3.086-.707-5.558-.707-6.274 0-14.352 4.434-20.504 4.434-4.196 0-7.24-1.218-12.434-1.218-1.25 0-3.1-.12-6.747.426-1.19-2.117-3.543-5.938-4.54-15.31.92-.362 3.216-.725 5.095-.725 5.847 0 11.457 2.387 16.87 2.387 6.84 0 10.884-4.665 19.044-4.665 2.027 0 3.316-.07 4.922.583-2.22-8.032-4.047-17.3-5.93-23.762 3.72 2.105 6.777 2.883 10.176 2.883 5.12 0 9.972-2.47 11.394-2.47 3.863 10.69 4.59 17.223 7.688 25.062 3.355 1.11 7.3 1.46 9.6 1.46 4.005 0 9.286-1.913 12.958-1.913 5.7 0 5.87 2.386 9.473 2.386 1.04 0 2.086-.148 2.652-.332 2.24 4.937 5.434 7.53 6.614 11.87-.775.388-2.29.67-3.38.67-4.145 0-6-2.15-9.71-2.15-4.923 0-9.4 2.098-13.556 2.13-1.887.007-8.187-.84-10.367-1.04.23.746 3.6 18.313 8.53 29.82zm0 0"/><path fill="#dd2330" d="M182.93 30.156c4.164.645 5.465 3.254 5.465 5.633 0 2.378-2.137 3.405-2.137 3.405.543.625 5.566 5.946 5.566 5.946-3.117 1.2-5.394 1.692-5.394 1.692l-5.106-7.234-1.695-.37c.866 3.706 1.272 7.82 1.272 7.82-3.218-.415-5.578-1.275-5.578-1.275-.644-7.656-3.187-18.187-3.187-18.187s7.058 1.996 10.78 2.56zm-1.383 6.125c1.11.204 2.047-.26 1.996-.995-.152-1.855-2.672-2.238-3.38-2.39a164.03 164.03 0 0 0-1.933-.41l.715 3.273s1.594.35 2.602.535zm0 0"/><path fill="#ffd200" d="M236.875 78.883c-.18-1.293-.465-2.563-.645-3.852a57.767 57.767 0 0 1-2.67 2.865s-.123.1-.154.2c-.04.12.05.335.05.335.212.44.325.672.536 1.117-.484 1.137-1.847 2.69-2.867 3.387-.723.492-1.137.796-1.5.605-.395-.204-.535-.85-.535-.85-1.192-3.85-2.117-8.1-3.2-12.596 0 0 .032.008.094-.012 1.887-.46 5.215-2.61 6.543-3.336l-.433-1.68c-1.422.43-4.98 2.063-6.817 2.348-.172-.738-.3-1.383-.496-2.098.962-.847 1.072-2.316.204-3.425-.937-1.21-2.664-1.53-3.85-.738-1.193.797-1.392 2.422-.454 3.62.34.443.785.767 1.28.958.15.684.263 1.258.423 1.985 0 0-2.067-.05-6.93-1.692l.465 1.922s3.117 1.727 7.07 2.532a157.69 157.69 0 0 0 3.246 12.605s.192.617-.14.91c-.313.27-.848.262-1.664-.152-2.11-1.078-3.196-2.54-4.075-3.445.05-.497.07-.747.122-1.243 0 0 .02-.23-.06-.332-.062-.082-.214-.13-.214-.13-2.46-.795-3.73-1.502-3.73-1.502l1.07 4.132s.027.153.098.223c.094.078.325.07.325.07.484 0 .715 0 1.2.02 0 0 2.53 4.543 9.722 6.29 0 0 5.527-3.962 6.656-7.923.426-.23.637-.352 1.06-.613 0 0 .202-.12.252-.242.04-.102.02-.262.02-.262zm-14.766-16.45c.495-.33 1.222-.19 1.613.313.394.504.312 1.18-.192 1.524-.49.332-1.218.19-1.612-.313-.39-.504-.313-1.18.19-1.523zm0 0M213.195 54.39l.422.95c.05.11.153.2.274.242 2.684.746 5.438.988 8.16.918h.02c2.582-.234 4.942-.758 6.86-1.695.09-.04.12-.153.09-.262l-.21-.848c-.064-.218-.314-.383-.486-.312-3.914 1.855-9.492 2.18-14.816.625-.254-.07-.434.14-.324.383zm0 0"/><path fill="#ffd200" d="M227.648 43.78c-3.27-3.448-6.648-5.343-9.69-6.007-.044 0-.083-.04-.103-.082-.382-.702-1.21-1.147-2.02-1.167-.804-.02-1.327.485-1.3 1.18 0 .04-.02.07-.058.082-2.817.55-5.114 2.71-6.536 6.336-.01.032 0 .064 0 .095l.857 1.64.687 1.2.797 1.402 1.814 3.203v.02c.445 1.09 2.804 1.504 3.734 1.695 1.36.28 3.762.484 5.305.434 1.512-.095 3.63-.498 4.7-.87.706-.252 2.52-.807 2.327-1.823l-.21-3.125-.08-1.28-.08-1.157-.114-1.332s-.02-.414-.04-.442zm-17.308 4.615zm1.656 1.128zm15.188-.42zm-.594-3.802c-.274-.503-.7-1.007-1.12-1.5 0 0-.04-.042-.072-.042 0 0-.04 0-.05.023-.332.556-.676 1.138-.575 1.825.032.23.122.473.23.715.114.25.255.512.395.766.05.09.102.19.153.28-.222-.35-.476-.663-.757-.886a1.81 1.81 0 0 0-.777-.363.68.68 0 0 0-.282 0h-.01c-.29.063-.454.293-.513.574-.062.283-.03.626.173.93.168.282.472.525.765.755.02.012.032.02.05.02h.04c.02-.02.032-.05.02-.09-.078-.23-.14-.442-.102-.594.03-.132.145-.222.293-.253.05 0 .113-.008.17 0h.013c.242.043.543.234.765.504.09.102.21.497.3.747-1.772.21-5.553-.727-6.25-2.96.072-.07.122-.142.15-.235 1.222.242 1.554 1.03 1.566 1.058l.047.133h.485l-1.11-3.387h-.382l-.008.082c-.113.735-.547.946-.937.985a1.577 1.577 0 0 0-.266-.21c-.09-.282-.19-.927.508-1.34l.06-.04-.123-.395h-3.246l.142.473.11.025s.95.19 1.382 1.2a.71.71 0 0 0-.203.3c-.39.02-1.065-.122-1.74-.99l-.064-.077h-.394l.992 3.453h.504l-.03-.128s-.185-.906 1.07-1.148c.07.07.14.13.218.19.676 2.24-2.692 3.396-4.8 3.415-.07-.262-.2-.743-.18-.864.07-.293.26-.504.503-.566h.01a.783.783 0 0 1 .665.242c.14.152.21.37.273.613 0 0 .04.07.07.094h.052c.007 0 .027-.013.04-.025.16-.25.323-.51.323-.804 0-.323-.172-.663-.426-.956-.242-.282-.574-.524-.918-.574h-.01c-.1-.012-.202 0-.303 0a.98.98 0 0 0-.606.402c-.16.242-.23.574-.24.957 0-.103-.01-.2-.02-.302-.02-.273-.032-.547-.07-.816a2.725 2.725 0 0 0-.224-.758c-.343-.715-1.097-1.32-1.843-1.902-.02-.02-.05-.032-.07-.02 0 0-.044.02-.05.04-.142.542-.283 1.097-.255 1.65l-.727-1.28c1.294-2.84 3.4-4.945 5.68-5.402.446.496 1.098.828 1.747.84.644.008 1.047-.242 1.187-.707 2.442.523 5.883 2.69 8.582 5.312v1.008zm0 0M216.957 35.605c-.687-.53-1.293-1.45-1.3-1.468.007 0 1.058.3 1.816.754-.477-1.613-.868-2.578-.868-2.578-.445.493-1.23.723-1.242.735 0-.02.02-.867.262-1.39-1.28.16-2.773.12-2.773.12.695.535 1.17 1.31 1.18 1.328 0 0-.927-.16-1.684-.613 0 0 .433 1.028.855 2.582.445-.504 1.305-.84 1.305-.84 0 .024-.012.918-.336 1.493 0 0 1.11-.13 2.773-.122zm0 0"/></svg>