<svg version="1.1" xmlns="http://www.w3.org/2000/svg" xmlns:xlink="http://www.w3.org/1999/xlink" x="0px" y="0px"
	 viewBox="0 0 322.4 236.5" style="enable-background:new 0 0 322.4 236.5;" xml:space="preserve">
<style type="text/css">
	.st0{fill:#E84B3C;}
	.st1{fill:#F4F4F4;}
	.st2{fill:#F1C537;}
	.st3{fill:#FFFFFF;}
</style>
<g>
	<g>
		<path class="st0" d="M322.4,172c0,17.8-6.3,33-18.9,45.6c-12.6,12.6-27.8,18.9-45.6,18.9H75.2c-20.7,0-38.4-7.4-53.2-22.1
			C7.4,199.6,0,181.9,0,161.2c0-14.8,4-28.3,11.9-40.6c7.9-12.3,18.4-21.4,31.4-27.5C43.1,90.1,43,87.7,43,86
			c0-23.7,8.4-44,25.2-60.8C85,8.4,105.2,0,129,0c17.7,0,33.7,4.9,48.1,14.8c14.4,9.9,24.9,22.7,31.5,38.6
			c7.8-6.9,17.1-10.4,27.9-10.4c11.9,0,22,4.2,30.4,12.6c8.4,8.4,12.6,18.5,12.6,30.4c0,8.4-2.3,16.1-6.9,23.2
			c14.4,3.4,26.4,10.9,35.8,22.6C317.7,143.4,322.4,156.8,322.4,172z"/>
	</g>
	<g>
		<path class="st1" d="M200.2,170.8c0,8.2-2.5,14.6-7.4,19.3c-5,4.7-11.6,7.1-19.8,7.1H84c-8.2,0-14.8-2.4-19.8-7.1
			c-5-4.7-7.4-11.2-7.4-19.3c0-3.6,0.1-7.1,0.4-10.5c0.2-3.4,0.7-7.1,1.4-11.1c0.7-4,1.6-7.7,2.7-11.1c1.1-3.4,2.5-6.7,4.4-9.9
			c1.8-3.2,3.9-6,6.3-8.3c2.4-2.3,5.3-4.1,8.7-5.5c3.4-1.4,7.2-2,11.4-2c0.7,0,2.1,0.7,4.4,2.2c2.2,1.5,4.7,3.1,7.4,4.9
			c2.7,1.8,6.4,3.4,10.9,4.9s9.1,2.2,13.8,2.2c4.6,0,9.2-0.7,13.8-2.2c4.6-1.5,8.2-3.1,10.9-4.9c2.7-1.8,5.2-3.4,7.4-4.9
			c2.2-1.5,3.7-2.2,4.4-2.2c4.1,0,7.9,0.7,11.4,2c3.4,1.4,6.3,3.2,8.7,5.5c2.4,2.3,4.5,5,6.3,8.3c1.8,3.2,3.3,6.5,4.4,9.9
			c1.1,3.4,2,7.1,2.7,11.1c0.7,4,1.2,7.7,1.4,11.1C200.1,163.7,200.2,167.2,200.2,170.8z M156.2,52.2c7.6,7.6,11.5,16.9,11.5,27.7
			c0,10.8-3.8,20-11.5,27.7c-7.6,7.6-16.9,11.5-27.7,11.5s-20-3.8-27.7-11.5c-7.6-7.6-11.5-16.9-11.5-27.7c0-10.8,3.8-20,11.5-27.7
			c7.6-7.6,16.9-11.5,27.7-11.5S148.5,44.5,156.2,52.2z"/>
	</g>
	<g>
		<circle class="st2" cx="198.7" cy="172.2" r="32.8"/>
		<g>
			<path class="st3" d="M217.1,182.7c-0.3,0.3-0.7,0.4-1.3,0.4l-12.5-0.2l-7.2,10.2c-0.1,0.1-0.2,0.2-0.3,0.4
				c-0.2,0.2-0.5,0.4-0.8,0.4c-0.3,0-0.6,0-0.8-0.3c-0.2-0.2-0.4-0.5-0.5-0.9l-3.7-11.9l-11.9-3.7c-0.4-0.1-0.7-0.3-0.9-0.5
				c-0.2-0.2-0.3-0.5-0.3-0.8c0-0.3,0.2-0.6,0.4-0.8c0.1-0.1,0.2-0.2,0.4-0.3l10.2-7.2l-0.2-12.5c0-0.6,0.2-1,0.4-1.3
				c0.4-0.4,1-0.4,1.8,0.2l10,7.5l11.8-4c0.7-0.3,1.2-0.2,1.6,0.1c0.3,0.3,0.4,0.9,0.1,1.6l-4,11.8l7.5,10
				C217.5,181.7,217.5,182.3,217.1,182.7z"/>
		</g>
	</g>
</g>
</svg>
